<svg width="100" height="100" viewBox="0 0 100 100" fill="none" xmlns="http://www.w3.org/2000/svg">
<path d="M36.7526 77.3366C36.7526 77.3366 32.9313 79.5588 39.4722 80.3107C47.3966 81.2146 51.4463 81.0852 60.179 79.4323C60.179 79.4323 62.475 80.8718 65.681 82.1188C46.1052 90.5087 21.3765 81.6327 36.7526 77.3366V77.3366ZM34.3605 66.3882C34.3605 66.3882 30.0745 69.5609 36.6203 70.2378C45.0852 71.1111 51.77 71.1826 63.3375 68.9552C63.3375 68.9552 64.9375 70.5772 67.4533 71.4643C43.7846 78.3853 17.4221 72.0101 34.3605 66.3882" fill="#5382A1"/>
<path d="M54.5266 47.8161C59.3503 53.3694 53.2594 58.3668 53.2594 58.3668C53.2594 58.3668 65.507 52.0442 59.8822 44.1266C54.6289 36.7434 50.6 33.0744 72.4098 20.4258C72.4098 20.4258 38.1757 28.9758 54.5266 47.8159" fill="#E76F00"/>
<path d="M80.4175 85.4345C80.4175 85.4345 83.2454 87.7645 77.303 89.5671C66.0036 92.9903 30.2732 94.0239 20.3473 89.7035C16.7794 88.1516 23.4705 85.9974 25.5752 85.5452C27.7701 85.0692 29.0247 85.158 29.0247 85.158C25.0566 82.3626 3.37677 90.6468 18.0125 93.019C57.9258 99.4918 90.7704 90.1045 80.4175 85.4345ZM38.5901 55.0442C38.5901 55.0442 20.4156 59.3612 32.1543 60.9285C37.1105 61.5921 46.9909 61.4421 56.1944 60.6708C63.7159 60.0367 71.2685 58.6875 71.2685 58.6875C71.2685 58.6875 68.6163 59.8233 66.6976 61.1335C48.2414 65.9875 12.5875 63.7295 22.8518 58.7642C31.5324 54.5682 38.5904 55.0442 38.5904 55.0442H38.5901ZM71.1935 73.2682C89.9554 63.519 81.2806 54.1501 75.2258 55.4125C73.7417 55.7212 73.0801 55.9887 73.0801 55.9887C73.0801 55.9887 73.6311 55.1259 74.6833 54.7524C86.6613 50.5411 95.8735 67.1726 70.8165 73.7596C70.8165 73.7599 71.1069 73.5004 71.1935 73.2682" fill="#5382A1"/>
<path d="M59.8822 0.00102195C59.8822 0.00102195 70.2727 10.3953 50.0272 26.378C33.7927 39.1992 46.3252 46.5094 50.0206 54.8616C40.5441 46.3116 33.5894 38.7849 38.2553 31.7798C45.1031 21.4964 64.0743 16.5109 59.8822 0.000732422" fill="#E76F00"/>
<path d="M40.4338 99.6862C58.4426 100.839 86.097 99.0466 86.752 90.5254C86.752 90.5254 85.4931 93.756 71.8687 96.3213C56.4978 99.2137 37.5401 98.8761 26.296 97.0222C26.2963 97.0222 28.5978 98.9274 40.4341 99.6862" fill="#5382A1"/>
</svg>
