<svg width="100" height="100" viewBox="0 0 100 100" fill="none" xmlns="http://www.w3.org/2000/svg">
<path d="M98.4938 22.4857C98.5296 22.6182 98.5479 22.7548 98.5482 22.8921V44.2262C98.5482 44.5001 98.4759 44.769 98.3387 45.006C98.2014 45.2429 98.0041 45.4394 97.7665 45.5757L79.8604 55.885V76.3188C79.8604 76.8749 79.5649 77.3883 79.0827 77.6683L41.7052 99.1852C41.6196 99.2338 41.5263 99.2649 41.433 99.298C41.398 99.3096 41.3649 99.331 41.328 99.3407C41.0667 99.4095 40.792 99.4095 40.5308 99.3407C40.488 99.3291 40.4491 99.3057 40.4083 99.2902C40.3227 99.2591 40.2333 99.2318 40.1516 99.1852L2.7819 77.6683C2.5445 77.5319 2.34725 77.3353 2.21002 77.0984C2.07279 76.8615 2.00043 76.5926 2.00024 76.3188V12.3164C2.00024 12.1764 2.01969 12.0403 2.05469 11.9081C2.06635 11.8634 2.09358 11.8225 2.10913 11.7778C2.1383 11.6961 2.16552 11.6125 2.2083 11.5367C2.23746 11.4862 2.28024 11.4453 2.31524 11.3987C2.35996 11.3364 2.40079 11.2723 2.45329 11.2178C2.49801 11.1731 2.55635 11.14 2.6069 11.1012C2.66329 11.0545 2.71384 11.0039 2.77801 10.967H2.77995L21.4658 0.208535C21.7024 0.0723876 21.9706 0.000732422 22.2435 0.000732422C22.5165 0.000732422 22.7847 0.0723876 23.0213 0.208535L41.7071 10.967H41.711C41.7732 11.0059 41.8257 11.0545 41.8821 11.0992C41.9327 11.1381 41.9891 11.1731 42.0338 11.2159C42.0882 11.2723 42.1271 11.3364 42.1738 11.3987C42.2068 11.4453 42.2516 11.4862 42.2788 11.5367C42.3235 11.6145 42.3488 11.6961 42.3799 11.7778C42.3955 11.8225 42.4227 11.8634 42.4343 11.91C42.4701 12.0425 42.4884 12.1792 42.4888 12.3164V52.2917L58.0597 43.326V22.8902C58.0597 22.754 58.0791 22.616 58.1141 22.4857C58.1277 22.4391 58.153 22.3982 58.1685 22.3535C58.1997 22.2718 58.2269 22.1882 58.2697 22.1124C58.2988 22.0618 58.3416 22.021 58.3747 21.9743C58.4213 21.9121 58.4602 21.8479 58.5147 21.7935C58.5594 21.7488 58.6158 21.7157 58.6663 21.6768C58.7246 21.6302 58.7752 21.5796 58.8374 21.5427H58.8394L77.5271 10.7842C77.7637 10.6479 78.0319 10.5761 78.3049 10.5761C78.5779 10.5761 78.8461 10.6479 79.0827 10.7842L97.7685 21.5427C97.8346 21.5816 97.8852 21.6302 97.9435 21.6749C97.9921 21.7138 98.0485 21.7488 98.0932 21.7916C98.1476 21.8479 98.1865 21.9121 98.2332 21.9743C98.2682 22.021 98.311 22.0618 98.3382 22.1124C98.3829 22.1882 98.4082 22.2718 98.4393 22.3535C98.4568 22.3982 98.4821 22.4391 98.4938 22.4857V22.4857ZM95.4332 43.326V25.5851L88.8942 29.3495L79.8604 34.5508V52.2917L95.4352 43.326H95.4332ZM76.7474 75.4186V57.666L67.8615 62.741L42.4868 77.223V95.1427L76.7474 75.4186ZM5.1152 15.0094V75.4186L39.3719 95.1408V77.2249L21.4755 67.0965L21.4697 67.0926L21.4619 67.0887C21.4016 67.0537 21.3511 67.0031 21.2947 66.9604C21.2461 66.9215 21.1897 66.8904 21.1469 66.8476L21.143 66.8417C21.0925 66.7931 21.0575 66.7329 21.0147 66.6784C20.9758 66.6259 20.9291 66.5812 20.898 66.5268L20.8961 66.5209C20.8611 66.4626 20.8397 66.3926 20.8144 66.3265C20.7891 66.2681 20.7561 66.2137 20.7405 66.1515V66.1495C20.7211 66.0756 20.7172 65.9979 20.7094 65.922C20.7016 65.8637 20.6861 65.8054 20.6861 65.747V23.9751L11.6543 18.7719L5.1152 15.0114V15.0094ZM22.2455 3.3546L6.67656 12.3164L22.2416 21.2782L37.8086 12.3145L22.2416 3.3546H22.2455ZM30.342 59.2838L39.3738 54.0844V15.0094L32.8348 18.7738L23.801 23.9751V63.0501L30.342 59.2838ZM78.3049 13.9303L62.7379 22.8921L78.3049 31.8539L93.8699 22.8902L78.3049 13.9303ZM76.7474 34.5508L67.7137 29.3495L61.1746 25.5851V43.326L70.2064 48.5253L76.7474 52.2917V34.5508ZM40.9274 74.53L63.7607 61.4946L75.1744 54.9808L59.6191 46.0248L41.7091 56.3361L25.3857 65.7334L40.9274 74.53Z" fill="#FF2D20"/>
</svg>
