<svg width="118" height="118" viewBox="0 0 118 118" fill="none" xmlns="http://www.w3.org/2000/svg">
<path d="M31.1101 91L43.4601 83.07L59.0701 91.98L74.8301 82.77L87.8901 90.21L59.1501 107L31.1101 91Z" fill="#3F5DFF"/>
<path d="M25.9099 31.2L58.7499 12L91.8199 30.86L91.9299 64.05L78.8899 56.61L78.8299 38.43L58.8399 27.03L38.9399 38.65L38.9899 56.82L34.5599 59.41L26.0099 64.89L25.9099 31.2Z" fill="#3F5DFF"/>
<path d="M43.6299 43.29L53.0299 48.64L43.6699 54.1L43.6299 43.29Z" fill="#3F5DFF"/>
<path d="M64.9399 70.38L77.8799 62.8L93.9499 71.95L104.86 65.58L104.79 52.95L96.5599 48.25L96.5099 33.25L117.9 45.45L117.91 73.02L94.0299 86.97L64.9399 70.38Z" fill="#3F5DFF"/>
<path d="M0.14 73.63L0 45.98L21.23 33.58L21.28 48.62L13.05 53.42L13.11 66.05L24.09 72.31L74.17 43.09L74.22 58.13L24.16 87.33L0.14 73.63Z" fill="#3F5DFF"/>
</svg>
