<svg width="100" height="100" viewBox="0 0 100 100" fill="none" xmlns="http://www.w3.org/2000/svg">
<g clip-path="url(#clip0_902_52)">
<path d="M66.4769 40.009H83.8952V43.224H76.9856V60.1374H73.5305V43.224H66.4769V40.009Z" fill="white"/>
<path d="M37.8304 40.009V43.224H23.8685V48.3959H35.0967V51.6108H23.8685V56.9225H37.8304V60.1374H20.4137V43.224H20.4122V40.009H37.8304Z" fill="white"/>
<path d="M46.5279 40.0176H42.0066L58.201 60.146H62.7355L54.6373 50.0887L62.7226 40.0329L58.201 40.0399L52.3736 47.2774L46.5279 40.0176Z" fill="white"/>
<path d="M51.1675 54.3953L48.9033 51.5801L41.9937 60.1612H46.5279L51.1675 54.3953Z" fill="white"/>
<path fill-rule="evenodd" clip-rule="evenodd" d="M20.5348 60.1375L4.31855 40.0007H0V60.1291H3.45485V44.3032L16.1946 60.1375H20.5348Z" fill="white"/>
<path d="M84.6719 60.0146C84.4188 60.0146 84.2036 59.927 84.0234 59.7516C83.8432 59.5763 83.7541 59.3641 83.7564 59.1127C83.7541 58.8682 83.8432 58.6582 84.0234 58.4829C84.2036 58.3076 84.4188 58.22 84.6719 58.22C84.9153 58.22 85.1282 58.3076 85.3084 58.4829C85.4912 58.6582 85.5823 58.8682 85.5848 59.1127C85.5823 59.2788 85.5402 59.431 85.4559 59.5671C85.3693 59.7055 85.2594 59.8139 85.1211 59.8924C84.9853 59.9731 84.8356 60.0146 84.6719 60.0146Z" fill="white"/>
<path d="M90.5685 51.5352H92.0994V57.4335C92.0972 57.9755 91.9799 58.4392 91.7507 58.829C91.519 59.2189 91.1982 59.5164 90.7862 59.7263C90.3766 59.9339 89.8967 60.0401 89.3512 60.0401C88.8525 60.0401 88.4055 59.9501 88.0076 59.7748C87.6096 59.5995 87.2936 59.3365 87.0619 58.9905C86.8276 58.6445 86.7129 58.2131 86.7129 57.6964H88.2464C88.2487 57.9225 88.3002 58.1185 88.3984 58.2823C88.4967 58.4461 88.6324 58.5706 88.8058 58.6583C88.9812 58.746 89.1827 58.7898 89.4096 58.7898C89.6555 58.7898 89.8662 58.739 90.037 58.6352C90.2078 58.5337 90.339 58.3815 90.4304 58.1785C90.5192 57.9778 90.5662 57.7287 90.5685 57.4335V51.5352Z" fill="white"/>
<path d="M98.3988 53.8419C98.3615 53.4843 98.1975 53.2052 97.912 53.0068C97.6239 52.8062 97.2518 52.707 96.7952 52.707C96.4747 52.707 96.1985 52.7554 95.9691 52.85C95.7397 52.9469 95.5617 53.076 95.4399 53.2398C95.3183 53.4036 95.2574 53.5904 95.2526 53.8004C95.2526 53.9757 95.2947 54.1279 95.3767 54.2548C95.4587 54.3839 95.5686 54.4924 95.7115 54.58C95.8518 54.67 96.0087 54.7438 96.1798 54.8038C96.3528 54.8637 96.5262 54.9145 96.6993 54.956L97.4975 55.1521C97.8183 55.2259 98.1298 55.3251 98.427 55.452C98.7242 55.5765 98.9935 55.7357 99.2298 55.9271C99.4663 56.1186 99.6536 56.3493 99.7917 56.6192C99.9297 56.889 100 57.2051 100 57.5695C100 58.0609 99.8737 58.4922 99.6183 58.8659C99.3633 59.2373 98.9957 59.5279 98.5135 59.7379C98.0336 59.9455 97.4531 60.0516 96.7696 60.0516C96.1094 60.0516 95.5336 59.9501 95.049 59.7471C94.5622 59.5464 94.1828 59.2511 93.9089 58.8636C93.6351 58.4761 93.4876 58.0032 93.4666 57.4473H94.9836C95.0046 57.7379 95.0983 57.9801 95.2574 58.1762C95.4188 58.37 95.6295 58.513 95.8871 58.6099C96.147 58.7044 96.4371 58.7529 96.7579 58.7529C97.0927 58.7529 97.3876 58.7021 97.6427 58.6029C97.8955 58.5037 98.0945 58.3654 98.2374 58.1854C98.3825 58.0078 98.4551 57.7979 98.4574 57.558C98.4551 57.3389 98.3894 57.1566 98.263 57.0136C98.1343 56.8706 97.9564 56.7506 97.7292 56.6538C97.5001 56.5569 97.233 56.4692 96.9287 56.3931L95.9597 56.1486C95.2597 55.971 94.7049 55.7011 94.2998 55.3389C93.8927 54.9768 93.6912 54.497 93.6912 53.8949C93.6912 53.4013 93.827 52.9677 94.1011 52.5963C94.3724 52.2249 94.7447 51.9365 95.2153 51.7312C95.6881 51.5236 96.2219 51.4221 96.8163 51.4221C97.4204 51.4221 97.9493 51.5236 98.4059 51.7312C98.8622 51.9365 99.2206 52.2226 99.4803 52.587C99.7402 52.9515 99.8759 53.369 99.8831 53.8419H98.3988Z" fill="white"/>
</g>
<defs>
<clipPath id="clip0_902_52">
<rect width="100" height="20.3046" fill="white" transform="translate(0 40.0007)"/>
</clipPath>
</defs>
</svg>
