<svg width="100" height="100" viewBox="0 0 100 100" fill="none" xmlns="http://www.w3.org/2000/svg">
<path fill-rule="evenodd" clip-rule="evenodd" d="M50 75.678C77.6143 75.678 100 64.3331 100 50.3394C100 36.3457 77.6143 25.0007 50 25.0007C22.3863 25.0007 0 36.3457 0 50.3394C0 64.3331 22.3863 75.678 50 75.678Z" fill="#6E81B6"/>
<path fill-rule="evenodd" clip-rule="evenodd" d="M60.1331 58.5293L62.6133 45.7648C63.1731 42.8838 62.7076 40.735 61.2305 39.377C59.7994 38.0632 57.3701 37.4242 53.8041 37.4242H49.5089L50.7375 31.0999C50.7605 30.9822 50.7572 30.8609 50.7278 30.7446C50.6984 30.6283 50.6436 30.52 50.5673 30.4274C50.4911 30.3348 50.3953 30.2603 50.2869 30.2091C50.1784 30.1579 50.06 30.1313 49.94 30.1313H44.0118C43.6225 30.1313 43.2881 30.4077 43.2137 30.7898L40.5795 44.3409C40.34 42.8161 39.7499 41.5053 38.8055 40.4236C37.0667 38.4332 34.3163 37.4242 30.63 37.4242H19.14C18.7506 37.4242 18.4163 37.7005 18.3419 38.082L13.0111 65.5119C12.9645 65.7508 13.0268 65.9962 13.1816 66.1837C13.3357 66.3717 13.5655 66.4799 13.8092 66.4799H19.7839C20.1733 66.4799 20.5076 66.2036 20.582 65.8209L21.8716 59.1865H26.3191C28.6529 59.1865 30.6143 58.9338 32.1452 58.4356C33.7105 57.9265 35.1513 57.0631 36.421 55.8744C37.447 54.9319 38.2946 53.8762 38.947 52.7377L37.8823 58.2179C37.8357 58.4567 37.898 58.7034 38.0528 58.8896C38.207 59.0777 38.4373 59.1859 38.6804 59.1859H44.6086C44.9979 59.1859 45.3323 58.9096 45.4067 58.5281L48.3324 43.4715H52.4002C54.1336 43.4715 54.6415 43.8167 54.7799 43.9648C54.9051 44.1003 55.1651 44.5773 54.873 46.081L52.5151 58.2173C52.4925 58.335 52.4961 58.4562 52.5257 58.5723C52.5554 58.6884 52.6103 58.7965 52.6865 58.889C52.7627 58.9814 52.8584 59.0559 52.9667 59.1071C53.075 59.1583 53.1933 59.185 53.3131 59.1853H59.3357C59.5241 59.1857 59.7068 59.1204 59.8523 59.0007C59.9979 58.8809 60.0972 58.7143 60.1331 58.5293V58.5293ZM32.6488 47.9825C32.2764 49.8961 31.575 51.2607 30.5629 52.0388C29.5351 52.8314 27.8911 53.2329 25.6764 53.2329H23.0282L24.943 43.379H28.3669C30.8821 43.379 31.8954 43.9165 32.3024 44.3669C32.8665 44.9921 32.9862 46.243 32.6488 47.9825V47.9825ZM85.1041 40.4236C83.3659 38.4332 80.6155 37.4242 76.9292 37.4242H65.4392C65.0492 37.4242 64.7155 37.7005 64.6411 38.082L59.3109 65.5119C59.2637 65.7508 59.326 65.9962 59.4808 66.1837C59.6355 66.3711 59.8659 66.4799 60.1077 66.4799H66.0831C66.4731 66.4799 66.8068 66.2036 66.8812 65.8209L68.1708 59.1865H72.6189C74.9533 59.1865 76.9129 58.9338 78.4444 58.4356C80.0103 57.9265 81.4511 57.0631 82.7201 55.8744C83.7794 54.9016 84.6507 53.8079 85.3109 52.6271C85.9711 51.4463 86.4445 50.1294 86.7209 48.7122C87.3998 45.217 86.8563 42.4285 85.1041 40.4236V40.4236ZM79.2872 47.9825C78.9141 49.8961 78.2128 51.2607 77.2019 52.0388C76.1734 52.8314 74.5295 53.2329 72.3154 53.2329H69.6666L71.5808 43.379H75.0053C77.5205 43.379 78.5338 43.9165 78.9413 44.3669C79.5042 44.9921 79.6246 46.243 79.2872 47.9825V47.9825Z" fill="white"/>
<path fill-rule="evenodd" clip-rule="evenodd" d="M28.197 42.5658C30.4667 42.5658 31.98 42.9848 32.7364 43.8227C33.4922 44.6607 33.6723 46.0997 33.2769 48.1378C32.8634 50.2606 32.0677 51.7758 30.8887 52.6839C29.7097 53.592 27.9152 54.0455 25.5065 54.0455H21.8715L24.1026 42.5658H28.197ZM13.6385 65.6667H19.6133L21.0311 58.3745H26.1492C28.4074 58.3745 30.2654 58.1369 31.7237 57.6622C33.182 57.1876 34.5079 56.3926 35.7008 55.2759C36.702 54.3562 37.5122 53.3405 38.1326 52.2304C38.7523 51.1204 39.1924 49.896 39.453 48.5568C40.0855 45.3053 39.6084 42.7725 38.0231 40.9587C36.4384 39.1443 33.9166 38.2374 30.46 38.2374H18.97L13.6385 65.6667V65.6667ZM43.8413 30.9446H49.7695L48.3523 38.2374H53.6342C56.9559 38.2374 59.2492 38.8166 60.5104 39.9756C61.7716 41.1347 62.1495 43.0132 61.6453 45.61L59.1652 58.3745H53.1426L55.5006 46.2376C55.7685 44.8566 55.6705 43.9153 55.2044 43.4128C54.7382 42.911 53.746 42.6595 52.2297 42.6595H47.4919L44.438 58.3745H38.5098L43.8413 30.9446ZM74.8355 42.5658C77.1052 42.5658 78.6179 42.9848 79.3749 43.8227C80.1307 44.6607 80.3102 46.0997 79.9148 48.1378C79.5025 50.2606 78.7068 51.7758 77.5272 52.6839C76.3488 53.592 74.5537 54.0455 72.1462 54.0455H68.5112L70.7417 42.5658H74.8355V42.5658ZM60.2758 65.6667H66.2512L67.6684 58.3745H72.7864C75.0453 58.3745 76.9032 58.1369 78.3616 57.6622C79.8199 57.1876 81.1458 56.3926 82.3387 55.2759C83.3399 54.3562 84.1501 53.3405 84.7698 52.2304C85.3896 51.1204 85.8303 49.896 86.0915 48.5568C86.7233 45.3053 86.2463 42.7725 84.6616 40.9587C83.0757 39.1443 80.5545 38.2374 77.0979 38.2374H65.6079L60.2758 65.6667V65.6667Z" fill="black"/>
</svg>
