<svg width="100" height="100" viewBox="0 0 100 100" fill="none"
  xmlns="http://www.w3.org/2000/svg">
  <g clip-path="url(#clip0_356_12)">
    <rect width="100" height="100" rx="20" fill="#0B224B"/>
    <path fill-rule="evenodd" clip-rule="evenodd" d="M24.9488 69.1276C28.3836 69.1276 31.168 71.912 31.168 75.347C31.168 78.7817 28.3836 81.5661 24.9488 81.5661C21.514 81.5661 18.7296 78.7817 18.7296 75.347C18.7296 71.912 21.514 69.1276 24.9488 69.1276ZM49.8256 69.1276C53.2604 69.1276 56.0448 71.912 56.0448 75.347C56.0448 78.7817 53.2604 81.5661 49.8256 81.5661C46.3909 81.5661 43.6065 78.7817 43.6065 75.347C43.6065 71.912 46.3909 69.1276 49.8256 69.1276ZM74.7025 69.1276C78.1372 69.1276 80.9216 71.912 80.9216 75.347C80.9216 78.7817 78.1372 81.5661 74.7025 81.5661C71.2675 81.5661 68.4833 78.7817 68.4833 75.347C68.4833 71.912 71.2675 69.1276 74.7025 69.1276ZM24.9488 44.2507C28.3836 44.2507 31.168 47.0351 31.168 50.4701C31.168 53.9049 28.3836 56.6893 24.9488 56.6893C21.514 56.6893 18.7296 53.9049 18.7296 50.4701C18.7296 47.0351 21.514 44.2507 24.9488 44.2507ZM49.8256 44.2507C53.2604 44.2507 56.0448 47.0351 56.0448 50.4701C56.0448 53.9049 53.2604 56.6893 49.8256 56.6893C46.3909 56.6893 43.6065 53.9049 43.6065 50.4701C43.6065 47.0351 46.3909 44.2507 49.8256 44.2507ZM74.7025 44.2507C78.1372 44.2507 80.9216 47.0351 80.9216 50.4701C80.9216 53.9049 78.1372 56.6893 74.7025 56.6893C71.2675 56.6893 68.4833 53.9049 68.4833 50.4701C68.4833 47.0351 71.2675 44.2507 74.7025 44.2507ZM24.9488 19.374C28.3836 19.374 31.168 22.1584 31.168 25.5932C31.168 29.028 28.3836 31.8124 24.9488 31.8124C21.514 31.8124 18.7296 29.028 18.7296 25.5932C18.7296 22.1584 21.514 19.374 24.9488 19.374ZM49.8256 19.374C53.2604 19.374 56.0448 22.1584 56.0448 25.5932C56.0448 29.028 53.2604 31.8124 49.8256 31.8124C46.3909 31.8124 43.6065 29.028 43.6065 25.5932C43.6065 22.1584 46.3909 19.374 49.8256 19.374ZM74.7025 19.374C78.1372 19.374 80.9216 22.1584 80.9216 25.5932C80.9216 29.028 78.1372 31.8124 74.7025 31.8124C71.2675 31.8124 68.4833 29.028 68.4833 25.5932C68.4833 22.1584 71.2675 19.374 74.7025 19.374Z" fill="white" fill-opacity="0.2"/>
    <path fill-rule="evenodd" clip-rule="evenodd" d="M24.7322 69.2839C28.1958 69.2839 31.0036 72.0915 31.0036 75.5552C31.0036 79.0189 28.1958 81.8265 24.7322 81.8265C21.2685 81.8265 18.4607 79.0189 18.4607 75.5552C18.4607 72.0915 21.2685 69.2839 24.7322 69.2839ZM74.9038 69.2839C78.3675 69.2839 81.1754 72.0915 81.1754 75.5552C81.1754 79.0189 78.3675 81.8265 74.9038 81.8265C71.4401 81.8265 68.6325 79.0189 68.6325 75.5552C68.6325 72.0915 71.4401 69.2839 74.9038 69.2839ZM24.7322 44.198C28.1958 44.198 31.0036 47.0056 31.0036 50.4693C31.0036 53.9331 28.1958 56.7409 24.7322 56.7409C21.2685 56.7409 18.4607 53.9331 18.4607 50.4693C18.4607 47.0056 21.2685 44.198 24.7322 44.198ZM49.8179 44.198C53.2817 44.198 56.0895 47.0056 56.0895 50.4693C56.0895 53.9331 53.2817 56.7409 49.8179 56.7409C46.3542 56.7409 43.5466 53.9331 43.5466 50.4693C43.5466 47.0056 46.3542 44.198 49.8179 44.198ZM74.9038 44.198C78.3675 44.198 81.1754 47.0056 81.1754 50.4693C81.1754 53.9331 78.3675 56.7409 74.9038 56.7409C71.4401 56.7409 68.6325 53.9331 68.6325 50.4693C68.6325 47.0056 71.4401 44.198 74.9038 44.198ZM24.7322 19.1121C28.1958 19.1121 31.0036 21.9199 31.0036 25.3835C31.0036 28.8472 28.1958 31.655 24.7322 31.655C21.2685 31.655 18.4607 28.8472 18.4607 25.3835C18.4607 21.9199 21.2685 19.1121 24.7322 19.1121ZM49.8179 19.1121C53.2817 19.1121 56.0895 21.9199 56.0895 25.3835C56.0895 28.8472 53.2817 31.655 49.8179 31.655C46.3542 31.655 43.5466 28.8472 43.5466 25.3835C43.5466 21.9199 46.3542 19.1121 49.8179 19.1121Z" fill="white"/>
    <path d="M41.0476 46.0773C41.0476 43.6528 43.0131 41.6874 45.4376 41.6874H54.2177C56.6422 41.6874 58.6076 43.6528 58.6076 46.0773V54.8574C58.6076 57.2819 56.6422 59.2474 54.2177 59.2474H45.4376C43.0131 59.2474 41.0476 57.2819 41.0476 54.8574V46.0773Z" fill="white"/>
    <path d="M18 23.0298C18 20.6053 19.9655 18.6398 22.39 18.6398H26.7801C29.2046 18.6398 31.1701 20.6053 31.1701 23.0298V27.4198C31.1701 29.8444 29.2046 31.8098 26.7801 31.8098H22.39C19.9655 31.8098 18 29.8444 18 27.4198V23.0298Z" fill="white"/>
  </g>
  <defs>
    <clipPath id="clip0_356_12">
      <rect width="100" height="100" fill="white"/>
    </clipPath>
  </defs>
</svg>
