<svg id="svg" version="1.1" xmlns="http://www.w3.org/2000/svg" xmlns:xlink="http://www.w3.org/1999/xlink" width="400" height="399.4594594594594" viewBox="0, 0, 400,399.4594594594594"><g id="svgg"><path id="path0" d="M38.628 3.064 C 38.482 3.210,38.362 15.348,38.362 30.037 L 38.362 56.743 46.953 56.743 L 55.544 56.743 55.544 65.335 C 55.544 70.060,55.589 73.962,55.644 74.007 C 55.699 74.051,59.790 74.186,64.735 74.306 L 73.726 74.525 73.830 92.215 L 73.934 109.905 64.839 109.798 L 55.744 109.690 55.637 100.591 L 55.529 91.493 47.045 91.600 L 38.561 91.708 38.457 109.391 L 38.353 127.073 46.941 127.073 L 55.529 127.073 55.637 136.164 L 55.744 145.255 64.835 145.362 L 73.926 145.470 73.926 154.445 L 73.926 163.421 65.435 163.529 L 56.943 163.636 56.836 172.727 L 56.728 181.818 65.320 181.818 L 73.911 181.818 74.018 190.909 L 74.126 200.000 82.717 200.000 L 91.309 200.000 91.416 208.691 L 91.524 217.383 136.871 217.383 L 182.218 217.383 182.218 226.573 L 182.218 235.764 146.254 235.764 L 110.290 235.764 110.290 244.303 L 110.290 252.842 118.781 253.194 L 127.273 253.546 127.477 261.938 C 127.589 266.553,127.825 270.554,128.000 270.829 C 128.251 271.223,135.983 271.329,164.459 271.329 L 200.599 271.329 200.599 280.317 L 200.599 289.305 173.327 289.408 L 146.054 289.510 145.946 298.202 L 145.839 306.893 128.064 306.893 L 110.290 306.893 110.290 315.884 L 110.290 324.875 101.299 324.875 L 92.308 324.875 92.308 351.449 L 92.308 378.022 100.899 378.022 L 109.491 378.022 109.491 360.247 L 109.491 342.473 118.581 342.365 L 127.672 342.258 127.780 333.566 L 127.888 324.875 136.871 324.875 L 145.854 324.875 145.854 333.666 L 145.854 342.458 136.852 342.458 L 127.850 342.458 127.961 369.211 C 128.032 386.432,128.214 396.078,128.472 396.284 C 128.691 396.460,136.783 396.513,146.454 396.404 L 164.036 396.204 164.036 387.612 L 164.036 379.021 155.045 378.821 L 146.054 378.621 145.947 369.331 L 145.839 360.040 154.538 360.034 C 159.322 360.030,163.482 359.872,163.782 359.682 C 164.229 359.399,164.275 357.869,164.035 351.161 L 163.743 342.986 169.247 342.722 C 172.275 342.576,176.432 342.458,178.485 342.458 L 182.218 342.458 182.218 333.874 C 182.218 325.294,182.218 325.290,183.117 325.104 C 183.611 325.002,191.529 324.843,200.712 324.751 C 209.895 324.659,217.519 324.473,217.654 324.338 C 217.789 324.202,218.008 320.357,218.141 315.792 L 218.382 307.493 225.774 307.244 C 229.840 307.107,237.704 306.972,243.249 306.944 L 253.332 306.893 253.439 297.802 L 253.546 288.711 263.037 288.604 L 272.527 288.497 272.527 279.921 L 272.527 271.345 281.019 271.237 L 289.510 271.129 289.710 262.537 L 289.910 253.946 298.102 253.701 C 302.607 253.567,306.590 253.432,306.951 253.402 C 307.530 253.353,307.643 252.296,307.901 244.555 L 308.194 235.764 316.734 235.764 L 325.275 235.764 325.275 208.815 L 325.275 181.867 317.647 181.743 L 310.019 181.618 309.055 180.497 C 308.105 179.391,308.092 179.264,308.092 171.206 L 308.092 163.037 299.533 163.037 C 294.826 163.037,290.690 162.928,290.342 162.794 C 289.793 162.584,289.710 161.430,289.710 154.003 L 289.710 145.455 280.320 145.455 L 270.929 145.455 270.931 141.558 C 270.932 139.416,271.049 135.370,271.192 132.567 L 271.452 127.473 284.677 127.471 C 291.951 127.470,300.195 127.352,302.997 127.209 L 308.092 126.950 308.092 118.420 L 308.092 109.890 325.475 109.890 L 342.857 109.890 342.857 118.482 L 342.857 127.073 351.453 127.073 L 360.048 127.073 359.944 109.391 L 359.840 91.708 351.349 91.600 L 342.857 91.493 342.857 82.909 L 342.857 74.326 325.475 74.326 L 308.092 74.326 308.092 65.600 L 308.092 56.874 272.051 56.598 C 252.228 56.446,235.961 56.274,235.902 56.215 C 235.843 56.156,235.653 52.249,235.480 47.534 L 235.165 38.961 217.882 38.857 L 200.599 38.753 200.599 47.748 L 200.599 56.743 209.183 56.743 L 217.767 56.743 217.874 65.435 L 217.982 74.126 235.664 74.230 L 253.347 74.334 253.347 82.913 L 253.347 91.493 244.855 91.600 L 236.364 91.708 236.164 100.699 L 235.964 109.690 226.859 109.798 L 217.755 109.905 218.001 135.772 C 218.137 149.998,218.317 161.863,218.402 162.138 C 218.519 162.516,220.570 162.639,226.861 162.643 C 231.428 162.647,235.396 162.797,235.680 162.976 C 236.095 163.240,236.133 166.812,235.879 181.452 L 235.564 199.600 226.973 199.850 C 222.248 199.987,218.247 200.021,218.082 199.926 C 217.917 199.831,217.782 195.538,217.782 190.386 L 217.782 181.019 208.738 181.019 L 199.694 181.019 199.847 154.545 L 200.000 128.072 191.109 127.964 L 182.218 127.857 182.218 118.873 L 182.218 109.890 173.035 109.890 L 163.851 109.890 163.744 100.999 L 163.636 92.108 154.645 91.867 C 149.700 91.734,145.616 91.599,145.569 91.567 C 145.522 91.535,145.595 87.644,145.732 82.921 L 145.981 74.334 127.835 74.230 L 109.690 74.126 109.583 65.435 L 109.475 56.743 100.492 56.743 L 91.508 56.743 91.508 47.976 C 91.508 41.517,91.380 39.129,91.022 38.907 C 90.754 38.742,87.023 38.481,82.730 38.328 C 78.437 38.174,74.637 37.930,74.285 37.785 C 73.558 37.487,73.133 32.962,73.129 25.482 L 73.127 21.194 64.436 21.087 L 55.744 20.979 55.637 11.888 L 55.529 2.797 47.212 2.797 C 42.637 2.797,38.775 2.917,38.628 3.064 M308.092 82.924 L 308.092 91.523 298.601 91.416 L 289.111 91.309 289.002 83.328 C 288.942 78.939,288.982 75.117,289.090 74.836 C 289.241 74.442,291.424 74.326,298.689 74.326 L 308.092 74.326 308.092 82.924 M127.780 118.781 L 127.672 127.672 100.799 127.775 L 73.926 127.878 73.926 118.884 L 73.926 109.890 100.907 109.890 L 127.887 109.890 127.780 118.781 M145.854 172.028 C 145.854 176.753,145.719 180.632,145.554 180.648 C 141.257 181.060,122.183 181.500,100.999 181.675 L 73.926 181.900 73.926 172.668 L 73.926 163.437 109.890 163.437 L 145.854 163.437 145.854 172.028 " stroke="none" fill="#141c1c" fill-rule="evenodd"></path><path id="path1" d="M0.000 199.800 L 0.000 399.600 200.000 399.600 L 400.000 399.600 400.000 199.800 L 400.000 0.000 200.000 0.000 L 0.000 0.000 0.000 199.800 M55.637 11.888 L 55.744 20.979 64.436 21.087 L 73.127 21.194 73.129 25.482 C 73.133 32.962,73.558 37.487,74.285 37.785 C 74.637 37.930,78.437 38.174,82.730 38.328 C 87.023 38.481,90.754 38.742,91.022 38.907 C 91.380 39.129,91.508 41.517,91.508 47.976 L 91.508 56.743 100.492 56.743 L 109.475 56.743 109.583 65.435 L 109.690 74.126 127.835 74.230 L 145.981 74.334 145.732 82.921 C 145.595 87.644,145.522 91.535,145.569 91.567 C 145.616 91.599,149.700 91.734,154.645 91.867 L 163.636 92.108 163.744 100.999 L 163.851 109.890 173.035 109.890 L 182.218 109.890 182.218 118.873 L 182.218 127.857 191.109 127.964 L 200.000 128.072 199.847 154.545 L 199.694 181.019 208.738 181.019 L 217.782 181.019 217.782 190.386 C 217.782 195.538,217.917 199.831,218.082 199.926 C 218.247 200.021,222.248 199.987,226.973 199.850 L 235.564 199.600 235.879 181.452 C 236.133 166.812,236.095 163.240,235.680 162.976 C 235.396 162.797,231.428 162.647,226.861 162.643 C 220.570 162.639,218.519 162.516,218.402 162.138 C 218.317 161.863,218.137 149.998,218.001 135.772 L 217.755 109.905 226.859 109.798 L 235.964 109.690 236.164 100.699 L 236.364 91.708 244.855 91.600 L 253.347 91.493 253.347 82.913 L 253.347 74.334 235.664 74.230 L 217.982 74.126 217.874 65.435 L 217.767 56.743 209.183 56.743 L 200.599 56.743 200.599 47.748 L 200.599 38.753 217.882 38.857 L 235.165 38.961 235.480 47.534 C 235.653 52.249,235.843 56.156,235.902 56.215 C 235.961 56.274,252.228 56.446,272.051 56.598 L 308.092 56.874 308.092 65.600 L 308.092 74.326 325.475 74.326 L 342.857 74.326 342.857 82.909 L 342.857 91.493 351.349 91.600 L 359.840 91.708 359.944 109.391 L 360.048 127.073 351.453 127.073 L 342.857 127.073 342.857 118.482 L 342.857 109.890 325.475 109.890 L 308.092 109.890 308.092 118.420 L 308.092 126.950 302.997 127.209 C 300.195 127.352,291.951 127.470,284.677 127.471 L 271.452 127.473 271.192 132.567 C 271.049 135.370,270.932 139.416,270.931 141.558 L 270.929 145.455 280.320 145.455 L 289.710 145.455 289.710 154.003 C 289.710 161.430,289.793 162.584,290.342 162.794 C 290.690 162.928,294.826 163.037,299.533 163.037 L 308.092 163.037 308.092 171.206 C 308.092 179.264,308.105 179.391,309.055 180.497 L 310.019 181.618 317.647 181.743 L 325.275 181.867 325.275 208.815 L 325.275 235.764 316.734 235.764 L 308.194 235.764 307.901 244.555 C 307.643 252.296,307.530 253.353,306.951 253.402 C 306.590 253.432,302.607 253.567,298.102 253.701 L 289.910 253.946 289.710 262.537 L 289.510 271.129 281.019 271.237 L 272.527 271.345 272.527 279.921 L 272.527 288.497 263.037 288.604 L 253.546 288.711 253.439 297.802 L 253.332 306.893 243.249 306.944 C 237.704 306.972,229.840 307.107,225.774 307.244 L 218.382 307.493 218.141 315.792 C 218.008 320.357,217.789 324.202,217.654 324.338 C 217.519 324.473,209.895 324.659,200.712 324.751 C 191.529 324.843,183.611 325.002,183.117 325.104 C 182.218 325.290,182.218 325.294,182.218 333.874 L 182.218 342.458 178.485 342.458 C 176.432 342.458,172.275 342.576,169.247 342.722 L 163.743 342.986 164.035 351.161 C 164.275 357.869,164.229 359.399,163.782 359.682 C 163.482 359.872,159.322 360.030,154.538 360.034 L 145.839 360.040 145.947 369.331 L 146.054 378.621 155.045 378.821 L 164.036 379.021 164.036 387.612 L 164.036 396.204 146.454 396.404 C 136.783 396.513,128.691 396.460,128.472 396.284 C 128.214 396.078,128.032 386.432,127.961 369.211 L 127.850 342.458 136.852 342.458 L 145.854 342.458 145.854 333.666 L 145.854 324.875 136.871 324.875 L 127.888 324.875 127.780 333.566 L 127.672 342.258 118.581 342.365 L 109.491 342.473 109.491 360.247 L 109.491 378.022 100.899 378.022 L 92.308 378.022 92.308 351.449 L 92.308 324.875 101.299 324.875 L 110.290 324.875 110.290 315.884 L 110.290 306.893 128.064 306.893 L 145.839 306.893 145.946 298.202 L 146.054 289.510 173.327 289.408 L 200.599 289.305 200.599 280.317 L 200.599 271.329 164.459 271.329 C 135.983 271.329,128.251 271.223,128.000 270.829 C 127.825 270.554,127.589 266.553,127.477 261.938 L 127.273 253.546 118.781 253.194 L 110.290 252.842 110.290 244.303 L 110.290 235.764 146.254 235.764 L 182.218 235.764 182.218 226.573 L 182.218 217.383 136.871 217.383 L 91.524 217.383 91.416 208.691 L 91.309 200.000 82.717 200.000 L 74.126 200.000 74.018 190.909 L 73.911 181.818 65.320 181.818 L 56.728 181.818 56.836 172.727 L 56.943 163.636 65.435 163.529 L 73.926 163.421 73.926 154.445 L 73.926 145.470 64.835 145.362 L 55.744 145.255 55.637 136.164 L 55.529 127.073 46.941 127.073 L 38.353 127.073 38.457 109.391 L 38.561 91.708 47.045 91.600 L 55.529 91.493 55.637 100.591 L 55.744 109.690 64.839 109.798 L 73.934 109.905 73.830 92.215 L 73.726 74.525 64.735 74.306 C 59.790 74.186,55.699 74.051,55.644 74.007 C 55.589 73.962,55.544 70.060,55.544 65.335 L 55.544 56.743 46.953 56.743 L 38.362 56.743 38.362 30.037 C 38.362 15.348,38.482 3.210,38.628 3.064 C 38.775 2.917,42.637 2.797,47.212 2.797 L 55.529 2.797 55.637 11.888 M289.090 74.836 C 288.982 75.117,288.942 78.939,289.002 83.328 L 289.111 91.309 298.601 91.416 L 308.092 91.523 308.092 82.924 L 308.092 74.326 298.689 74.326 C 291.424 74.326,289.241 74.442,289.090 74.836 M73.926 118.884 L 73.926 127.878 100.799 127.775 L 127.672 127.672 127.780 118.781 L 127.887 109.890 100.907 109.890 L 73.926 109.890 73.926 118.884 M73.926 172.668 L 73.926 181.900 100.999 181.675 C 122.183 181.500,141.257 181.060,145.554 180.648 C 145.719 180.632,145.854 176.753,145.854 172.028 L 145.854 163.437 109.890 163.437 L 73.926 163.437 73.926 172.668 " stroke="none" fill="#fbfbfb" fill-rule="evenodd"></path></g></svg>