<svg width="256" height="64" viewBox="0 0 256 64" fill="none" xmlns="http://www.w3.org/2000/svg">
<path d="M36 15.9999L58.1566 23.8912C65.9478 26.4772 65.9478 37.5227 58.1566 40.1087L36 47.9999V42.6687L56.5805 35.3388C59.7887 34.274 59.7887 29.7259 56.5805 28.6611L39.2589 22.3745L28 47.9999L5.84337 40.1087C-1.94779 37.5227 -1.94778 26.4772 5.84337 23.8912L28 15.9999V21.3311L7.41946 28.6611C4.21133 29.7259 4.21134 34.274 7.41946 35.3388L24.7411 41.6253L36 15.9999Z" fill="black"/>
<path fill-rule="evenodd" clip-rule="evenodd" d="M120 15.9999V40.4141C120 47.6347 110.797 50.6848 106.485 44.8936L89.5051 22.0925C88.0676 20.1621 85 21.1788 85 23.5857V47.9999H80V23.5857C80 16.3651 89.2027 13.315 93.5153 19.1062L110.495 41.9073C111.932 43.8377 115 42.821 115 40.4141V15.9999H120Z" fill="black"/>
<path fill-rule="evenodd" clip-rule="evenodd" d="M137.5 20.9999C133.358 20.9999 130 24.3578 130 28.4999V35.4999C130 39.642 133.358 42.9999 137.5 42.9999H160V47.9999H137.5C130.596 47.9999 125 42.4035 125 35.4999V28.4999C125 21.5963 130.596 15.9999 137.5 15.9999H160V20.9999H137.5Z" fill="black"/>
<path fill-rule="evenodd" clip-rule="evenodd" d="M187.5 20.9999C191.642 20.9999 195 24.3578 195 28.4999V35.4999C195 39.642 191.642 42.9999 187.5 42.9999H170V20.9999H187.5ZM200 28.4999C200 21.5963 194.404 15.9999 187.5 15.9999H165V47.9999H187.5C194.404 47.9999 200 42.4035 200 35.4999V28.4999Z" fill="black"/>
<path fill-rule="evenodd" clip-rule="evenodd" d="M251 47.9999V15.9999H256V47.9999H251Z" fill="black"/>
<path fill-rule="evenodd" clip-rule="evenodd" d="M213 15.9999H232.5C239.404 15.9999 245 21.5963 245 28.4999V47.9999H215C209.477 47.9999 205 43.5227 205 37.9999C205 32.477 209.477 27.9999 215 27.9999H239.984C239.726 24.0909 236.474 20.9999 232.5 20.9999H213V15.9999ZM240 32.9999H215C212.239 32.9999 210 35.2385 210 37.9999C210 40.7613 212.239 42.9999 215 42.9999H240V32.9999Z" fill="black"/>
</svg>
