<svg width="960" height="960" viewBox="0 0 960 960" fill="none" xmlns="http://www.w3.org/2000/svg">
<rect width="960" height="960" fill="black"/>
<path d="M352 320H384V384H352V320ZM224 320H352V384H224V320ZM160 384H224V576H160V384ZM224 576H352V640H224V576ZM352 576H384V640H352V576ZM384 512H448V576H384V512ZM448 448H512V512H448V448ZM512 384H576V448H512V384ZM576 320H608V384H576V320ZM608 320H736V384H608V320ZM736 384H800V576H736V384ZM608 576H736V640H608V576ZM576 576H608V640H576V576Z" fill="white"/>
</svg>
