<svg xmlns="http://www.w3.org/2000/svg" fill="none" viewBox="0 0 384 384"><rect width="384" height="384" fill="#000" rx="192"/><path fill="#fff" d="M208 80h-32a64.069 64.069 0 0 0-64 64v96a64.068 64.068 0 0 0 64 64h32a64.068 64.068 0 0 0 64-64v-96a64.07 64.07 0 0 0-64-64Zm2.34 146.34a8.004 8.004 0 0 1 11.32 11.32l-24 24a7.986 7.986 0 0 1-5.66 2.346 8 8 0 0 1-5.66-2.346l-24-24a8.004 8.004 0 0 1 11.32-11.32L184 236.69v-89.38l-10.34 10.35a8.004 8.004 0 0 1-11.32-11.32l24-24a7.986 7.986 0 0 1 5.66-2.346 8 8 0 0 1 5.66 2.346l24 24a8.004 8.004 0 0 1-11.32 11.32L200 147.31v89.38l10.34-10.35Z"/></svg>